<svg id="visual" viewBox="0 0 900 900" width="900" height="900" xmlns="http://www.w3.org/2000/svg" xmlns:xlink="http://www.w3.org/1999/xlink" version="1.1"><g transform="translate(416.5575988794299 471.967880427205)"><path d="M135.3 -201.3C219.9 -156.1 363.7 -194 426.9 -163.3C490.2 -132.7 472.7 -33.6 440.8 50.6C408.8 134.9 362.4 204.3 308 266.6C253.6 329 191.3 384.2 122 395.5C52.6 406.8 -23.9 374.2 -116.2 362.4C-208.6 350.5 -316.8 359.4 -346.3 309.1C-375.8 258.9 -326.5 149.4 -334.1 52.1C-341.8 -45.2 -406.5 -130.2 -402.5 -202.4C-398.5 -274.7 -325.7 -334.2 -247.2 -382.2C-168.7 -430.1 -84.3 -466.6 -29.5 -420.7C25.3 -374.8 50.7 -246.5 135.3 -201.3" fill="#0d0d0d"></path></g></svg>