<svg id="visual" viewBox="0 0 900 450" width="900" height="450" xmlns="http://www.w3.org/2000/svg" xmlns:xlink="http://www.w3.org/1999/xlink" version="1.1"><rect x="0" y="0" width="900" height="450" fill="#FFFFFF"></rect><defs><linearGradient id="grad1_0" x1="50%" y1="0%" x2="100%" y2="100%"><stop offset="10%" stop-color="#ffffff" stop-opacity="1"></stop><stop offset="90%" stop-color="#ffffff" stop-opacity="1"></stop></linearGradient></defs><defs><linearGradient id="grad2_0" x1="0%" y1="0%" x2="50%" y2="100%"><stop offset="10%" stop-color="#ffffff" stop-opacity="1"></stop><stop offset="90%" stop-color="#ffffff" stop-opacity="1"></stop></linearGradient></defs><g transform="translate(900, 0)"><path d="M0 427.5C-46.2 386.8 -92.4 346.1 -131.3 316.9C-170.1 287.7 -201.5 270.1 -249.6 249.6C-297.7 229.1 -362.5 205.7 -395 163.6C-427.4 121.5 -427.4 60.8 -427.5 0L0 0Z" fill="#FFC4C4"></path></g><g transform="translate(0, 450)"><path d="M0 -427.5C56.9 -417.8 113.9 -408.1 158 -381.6C202.2 -355.1 233.6 -311.7 275.1 -275.1C316.5 -238.4 367.9 -208.3 395 -163.6C422 -118.9 424.8 -59.4 427.5 0L0 0Z" fill="#FFC4C4"></path></g></svg>