<svg id="visual" viewBox="0 0 960 540" width="960" height="540" xmlns="http://www.w3.org/2000/svg" xmlns:xlink="http://www.w3.org/1999/xlink" version="1.1"><rect x="0" y="0" width="960" height="540" fill="#FFFFFF"></rect><defs><linearGradient id="grad1_0" x1="43.8%" y1="0%" x2="100%" y2="100%"><stop offset="14.444444444444446%" stop-color="#ffffff" stop-opacity="1"></stop><stop offset="85.55555555555554%" stop-color="#ffffff" stop-opacity="1"></stop></linearGradient></defs><defs><linearGradient id="grad2_0" x1="0%" y1="0%" x2="56.3%" y2="100%"><stop offset="14.444444444444446%" stop-color="#ffffff" stop-opacity="1"></stop><stop offset="85.55555555555554%" stop-color="#ffffff" stop-opacity="1"></stop></linearGradient></defs><g transform="translate(960, 0)"><path d="M0 513C-54.5 465.3 -109 417.7 -160.3 387.1C-211.7 356.5 -259.8 343.1 -316.8 316.8C-373.8 290.5 -439.8 251.3 -474 196.3C-508.1 141.4 -510.6 70.7 -513 0L0 0Z" fill="#FFC4C4"></path></g><g transform="translate(0, 540)"><path d="M0 -513C66 -504.9 132.1 -496.8 196.3 -474C260.6 -451.1 323 -413.4 361.3 -361.3C399.7 -309.3 413.9 -242.9 435.1 -180.2C456.4 -117.6 484.7 -58.8 513 0L0 0Z" fill="#FFC4C4"></path></g></svg>